<svg width="36" height="37" viewBox="0 0 36 37" fill="none" xmlns="http://www.w3.org/2000/svg">
<path d="M1.5 14L4.5 17C11.955 9.54502 24.045 9.54502 31.5 17L34.5 14C25.395 4.89501 10.62 4.89501 1.5 14ZM13.5 26L18 30.5L22.5 26C21.9096 25.4081 21.2082 24.9384 20.4361 24.618C19.6639 24.2975 18.836 24.1325 18 24.1325C17.164 24.1325 16.3361 24.2975 15.5639 24.618C14.7918 24.9384 14.0904 25.4081 13.5 26ZM7.5 20L10.5 23C12.4897 21.012 15.1873 19.8952 18 19.8952C20.8127 19.8952 23.5103 21.012 25.5 23L28.5 20C22.71 14.21 13.305 14.21 7.5 20Z" fill="white"/>
</svg>
